# xmcd
#
# Track frame offsets: 
#        150
#        14148
#        27361
#        40244
#        51994
#        64296
#        77779
#        90134
#        103522
#        115191
#        127597
#        140670
#        152957
#        165135
#        177882
#        189407
#        201250
#        213184
#        224775
#        238371
#        251931
#        264333
#        276418
#        286638
#
# Disc length: 3984 seconds
#
# Revision: 0
# Processed by: cddbd v1.5.2PL0 Copyright (c) Steve Scherf et al.
# Submitted via: ExactAudioCopy v0.95b4
#
DISCID=610f8e18
DTITLE=The Delmore Brothers - Delmore Brothers Volume 2
DYEAR=2007
DGENRE=Country
TTITLE0=Harmonica Blues
TTITLE1=Mississippi Shore
TTITLE2=Waitin' For that Train
TTITLE3=Brown's Ferry Blues
TTITLE4=Mobile Boogie
TTITLE5=Stop That Boogie
TTITLE6=Used Car Blues
TTITLE7=Barnyard Boogie
TTITLE8=Fifty Miles to Travel
TTITLE9=Now I'm Free
TTITLE10=Lonesome Day
TTITLE11=Down Home Boogie
TTITLE12=Peach Tree Street Boogie
TTITLE13=Blues Stay Away From Me
TTITLE14=Trouble Ain't Nothin' But The Blues
TTITLE15=Everybody Loves Her
TTITLE16=I Let The Freight Train Carry Me On
TTITLE17=Please Be My Sunshine
TTITLE18=Who's Gonna Be Lonesome For Me
TTITLE19=The Girl by the River
TTITLE20=There's Sumpin' About Love
TTITLE21=Tennessee Choo Choo
TTITLE22=Good Time Saturday Night
TTITLE23=The Trail Of Time
EXTD=
EXTT0=
EXTT1=
EXTT2=
EXTT3=
EXTT4=
EXTT5=
EXTT6=
EXTT7=
EXTT8=
EXTT9=
EXTT10=
EXTT11=
EXTT12=
EXTT13=
EXTT14=
EXTT15=
EXTT16=
EXTT17=
EXTT18=
EXTT19=
EXTT20=
EXTT21=
EXTT22=
EXTT23=
PLAYORDER=
